<svg width="25" height="25" viewBox="0 0 25 25" fill="none" xmlns="http://www.w3.org/2000/svg">
<path d="M21.875 3.125H19.5312V0.78125C19.5312 0.35 19.1812 0 18.75 0H4.6875C3.39531 0 2.34375 1.05156 2.34375 2.34375V21.875C2.34375 23.5984 3.74531 25 5.46875 25H21.875C22.3062 25 22.6562 24.65 22.6562 24.2188V3.90625C22.6562 3.475 22.3062 3.125 21.875 3.125ZM4.6875 1.5625H17.9688V3.125H4.6875C4.25625 3.125 3.90625 2.775 3.90625 2.34375C3.90625 1.9125 4.25625 1.5625 4.6875 1.5625ZM21.0938 23.4375H5.46875C4.60781 23.4375 3.90625 22.7359 3.90625 21.875V4.54375C4.15156 4.63125 4.4125 4.6875 4.6875 4.6875H21.0938V23.4375Z" fill="#ADB9CA"/>
<path d="M11.7188 7.8125C9.99531 7.8125 8.59375 9.21406 8.59375 10.9375C8.59375 12.6609 9.99531 14.0625 11.7188 14.0625C13.4422 14.0625 14.8438 12.6609 14.8438 10.9375C14.8438 9.21406 13.4422 7.8125 11.7188 7.8125ZM11.7188 12.5C10.8578 12.5 10.1562 11.7984 10.1562 10.9375C10.1562 10.0766 10.8578 9.375 11.7188 9.375C12.5797 9.375 13.2812 10.0766 13.2812 10.9375C13.2812 11.7984 12.5797 12.5 11.7188 12.5Z" fill="#ADB9CA"/>
<path d="M12.5 15.625H10.9375C8.78437 15.625 7.03125 17.3781 7.03125 19.5312C7.03125 19.9625 7.38125 20.3125 7.8125 20.3125H15.625C16.0562 20.3125 16.4062 19.9625 16.4062 19.5312C16.4062 17.3781 14.6531 15.625 12.5 15.625ZM8.72656 18.75C9.05 17.8406 9.91875 17.1875 10.9375 17.1875H12.5C13.5188 17.1875 14.3875 17.8406 14.7109 18.75H8.72656Z" fill="#ADB9CA"/>
</svg>
