<svg width="25" height="25" viewBox="0 0 25 25" fill="none" xmlns="http://www.w3.org/2000/svg">
<path d="M9.63535 8.3334H1.82285C0.81768 8.3334 0 7.51572 0 6.51035V1.82285C0 0.81768 0.81768 0 1.82285 0H9.63535C10.6407 0 11.4584 0.81768 11.4584 1.82285V6.51035C11.4584 7.51572 10.6407 8.3334 9.63535 8.3334ZM1.82285 1.5625C1.67923 1.5625 1.5625 1.67923 1.5625 1.82285V6.51035C1.5625 6.65417 1.67923 6.7709 1.82285 6.7709H9.63535C9.77917 6.7709 9.8959 6.65417 9.8959 6.51035V1.82285C9.8959 1.67923 9.77917 1.5625 9.63535 1.5625H1.82285Z" fill="#ADB9CA"/>
<path d="M9.63535 25H1.82285C0.81768 25 0 24.1823 0 23.1772V12.2397C0 11.2343 0.81768 10.4166 1.82285 10.4166H9.63535C10.6407 10.4166 11.4584 11.2343 11.4584 12.2397V23.1772C11.4584 24.1823 10.6407 25 9.63535 25ZM1.82285 11.9791C1.67923 11.9791 1.5625 12.0959 1.5625 12.2397V23.1772C1.5625 23.3208 1.67923 23.4375 1.82285 23.4375H9.63535C9.77917 23.4375 9.8959 23.3208 9.8959 23.1772V12.2397C9.8959 12.0959 9.77917 11.9791 9.63535 11.9791H1.82285Z" fill="#ADB9CA"/>
<path d="M23.177 25H15.3645C14.3592 25 13.5415 24.1823 13.5415 23.1772V18.4897C13.5415 17.4843 14.3592 16.6666 15.3645 16.6666H23.177C24.1822 16.6666 24.9999 17.4843 24.9999 18.4897V23.1772C24.9999 24.1823 24.1822 25 23.177 25ZM15.3645 18.2291C15.2207 18.2291 15.104 18.3459 15.104 18.4897V23.1772C15.104 23.3208 15.2207 23.4375 15.3645 23.4375H23.177C23.3207 23.4375 23.4374 23.3208 23.4374 23.1772V18.4897C23.4374 18.3459 23.3207 18.2291 23.177 18.2291H15.3645Z" fill="#ADB9CA"/>
<path d="M23.177 14.5834H15.3645C14.3592 14.5834 13.5415 13.7657 13.5415 12.7604V1.82285C13.5415 0.81768 14.3592 0 15.3645 0H23.177C24.1822 0 24.9999 0.81768 24.9999 1.82285V12.7604C24.9999 13.7657 24.1822 14.5834 23.177 14.5834ZM15.3645 1.5625C15.2207 1.5625 15.104 1.67923 15.104 1.82285V12.7604C15.104 12.9042 15.2207 13.0209 15.3645 13.0209H23.177C23.3207 13.0209 23.4374 12.9042 23.4374 12.7604V1.82285C23.4374 1.67923 23.3207 1.5625 23.177 1.5625H15.3645Z" fill="#ADB9CA"/>
</svg>
