<svg width="16" height="16" viewBox="0 0 16 16" fill="none" xmlns="http://www.w3.org/2000/svg">
<path d="M0.533447 10.1333L0.179894 9.77977L0.0334473 9.92622V10.1333H0.533447ZM10.1334 0.533325L10.487 0.179772C10.2917 -0.0154904 9.97516 -0.0154904 9.77989 0.179772L10.1334 0.533325ZM15.4668 5.86666L15.8203 6.22021C16.0156 6.02495 16.0156 5.70837 15.8203 5.5131L15.4668 5.86666ZM5.86678 15.4667V15.9667H6.07389L6.22033 15.8202L5.86678 15.4667ZM0.533447 15.4667H0.0334473C0.0334473 15.7428 0.257305 15.9667 0.533447 15.9667L0.533447 15.4667ZM0.887001 10.4869L10.487 0.886879L9.77989 0.179772L0.179894 9.77977L0.887001 10.4869ZM9.77989 0.886879L15.1132 6.22021L15.8203 5.5131L10.487 0.179772L9.77989 0.886879ZM15.1132 5.5131L5.51323 15.1131L6.22033 15.8202L15.8203 6.22021L15.1132 5.5131ZM5.86678 14.9667H0.533447V15.9667H5.86678V14.9667ZM1.03345 15.4667V10.1333H0.0334473V15.4667H1.03345ZM6.57989 4.08688L11.9132 9.42021L12.6203 8.7131L7.287 3.37977L6.57989 4.08688ZM8.53345 15.9667H16.0001V14.9667H8.53345V15.9667Z" fill="#474949"/>
</svg>
