<svg width="25" height="25" viewBox="0 0 25 25" fill="none" xmlns="http://www.w3.org/2000/svg">
<g clip-path="url(#clip0)">
<path d="M20.0521 22.9167H4.94792C3.94271 22.9167 3.125 22.099 3.125 21.0938V1.82292C3.125 0.817708 3.94271 0 4.94792 0H20.0521C21.0573 0 21.875 0.817708 21.875 1.82292V21.0938C21.875 22.099 21.0573 22.9167 20.0521 22.9167ZM4.94792 1.5625C4.80417 1.5625 4.6875 1.67917 4.6875 1.82292V21.0938C4.6875 21.2375 4.80417 21.3542 4.94792 21.3542H20.0521C20.1958 21.3542 20.3125 21.2375 20.3125 21.0938V1.82292C20.3125 1.67917 20.1958 1.5625 20.0521 1.5625H4.94792Z" fill="#ADB9CA"/>
<path d="M21.0938 12.5H3.90625C3.475 12.5 3.125 12.15 3.125 11.7188C3.125 11.2875 3.475 10.9375 3.90625 10.9375H21.0938C21.525 10.9375 21.875 11.2875 21.875 11.7188C21.875 12.15 21.525 12.5 21.0938 12.5Z" fill="#ADB9CA"/>
<path d="M8.073 25.0002C7.64175 25.0002 7.29175 24.6502 7.29175 24.2189V22.396C7.29175 21.9647 7.64175 21.6147 8.073 21.6147C8.50425 21.6147 8.85425 21.9647 8.85425 22.396V24.2189C8.85425 24.6502 8.50425 25.0002 8.073 25.0002Z" fill="#ADB9CA"/>
<path d="M16.927 25.0002C16.4958 25.0002 16.1458 24.6502 16.1458 24.2189V22.396C16.1458 21.9647 16.4958 21.6147 16.927 21.6147C17.3583 21.6147 17.7083 21.9647 17.7083 22.396V24.2189C17.7083 24.6502 17.3583 25.0002 16.927 25.0002Z" fill="#ADB9CA"/>
<path d="M14.8438 18.7502H10.1562C9.725 18.7502 9.375 18.4002 9.375 17.9689V16.9272C9.375 16.496 9.725 16.146 10.1562 16.146C10.5875 16.146 10.9375 16.496 10.9375 16.9272V17.1877H14.0625V16.9272C14.0625 16.496 14.4125 16.146 14.8438 16.146C15.275 16.146 15.625 16.496 15.625 16.9272V17.9689C15.625 18.4002 15.275 18.7502 14.8438 18.7502Z" fill="#ADB9CA"/>
<path d="M14.8438 8.33316H10.1562C9.725 8.33316 9.375 7.98316 9.375 7.55192V6.51025C9.375 6.079 9.725 5.729 10.1562 5.729C10.5875 5.729 10.9375 6.079 10.9375 6.51025V6.77067H14.0625V6.51025C14.0625 6.079 14.4125 5.729 14.8438 5.729C15.275 5.729 15.625 6.079 15.625 6.51025V7.55192C15.625 7.98316 15.275 8.33316 14.8438 8.33316Z" fill="#ADB9CA"/>
</g>
<defs>
<clipPath id="clip0">
<rect width="25" height="25" fill="white"/>
</clipPath>
</defs>
</svg>
