<svg width="32" height="32" viewBox="0 0 32 32" fill="none" xmlns="http://www.w3.org/2000/svg">
<path d="M28.5714 3.42857H15.6811L14.7989 0.781741C14.6433 0.314799 14.2064 -0.000133886 13.7143 4.26993e-08H3.42857C1.53502 4.26993e-08 0 1.53502 0 3.42857V28.5714C0 30.465 1.53502 32 3.42857 32H28.5714C30.465 32 32 30.465 32 28.5714V6.85714C32 4.96359 30.465 3.42857 28.5714 3.42857ZM29.7142 28.5714C29.7142 29.2026 29.2026 29.7143 28.5714 29.7143H3.42857C2.79736 29.7143 2.28569 29.2026 2.28569 28.5714V11.4286H29.7142V28.5714ZM29.7142 9.14283H2.28569V3.42857C2.28569 2.79736 2.79736 2.28569 3.42857 2.28569H12.8903L13.7725 4.93259C13.928 5.39946 14.365 5.71439 14.8571 5.71433H28.5714C29.2026 5.71433 29.7142 6.226 29.7142 6.8572V9.14283Z" fill="#ADB9CA"/>
</svg>
