<svg width="25" height="25" viewBox="0 0 25 25" fill="none" xmlns="http://www.w3.org/2000/svg">
<path d="M22.3214 2.67857H12.2509L11.5616 0.610735C11.4401 0.245937 11.0987 -0.000104598 10.7143 3.33588e-08H2.67857C1.19924 3.33588e-08 0 1.19924 0 2.67857V22.3214C0 23.8008 1.19924 25 2.67857 25H22.3214C23.8008 25 25 23.8008 25 22.3214V5.35714C25 3.8778 23.8008 2.67857 22.3214 2.67857ZM23.2143 22.3214C23.2143 22.8146 22.8145 23.2143 22.3214 23.2143H2.67857C2.18544 23.2143 1.7857 22.8146 1.7857 22.3214V8.92858H23.2143V22.3214ZM23.2143 7.14284H1.7857V2.67857C1.7857 2.18544 2.18544 1.7857 2.67857 1.7857H10.0705L10.7598 3.85358C10.8813 4.21833 11.2226 4.46437 11.6071 4.46432H22.3214C22.8145 4.46432 23.2143 4.86406 23.2143 5.35719V7.14284Z" fill="#FF7100"/>
</svg>
