<svg width="32" height="32" viewBox="0 0 32 32" fill="none" xmlns="http://www.w3.org/2000/svg">
<g clip-path="url(#clip0)">
<path d="M29.4209 20.2666H27.3188C27.3188 19.8682 27.3188 1.34717 27.3188 0.941162C27.3188 0.421387 26.8975 0 26.3777 0C26.1887 0 6.16284 0 5.67188 0C5.1521 0 4.73071 0.421387 4.73071 0.941162V20.2666H2.62866C2.10889 20.2666 1.6875 20.688 1.6875 21.2078V31.0588C1.6875 31.5786 2.10889 32 2.62866 32H29.4209C29.9407 32 30.3621 31.5786 30.3621 31.0588V21.2078C30.3621 20.688 29.9407 20.2666 29.4209 20.2666ZM25.4365 5.12427H23.575L22.3796 1.88232H25.4365V5.12427ZM20.3735 1.88232L21.5688 5.12427H19.7964L18.6011 1.88232H20.3735ZM15.4548 5.12427L14.2595 1.88232H16.5947L17.79 5.12427H15.4548ZM12.2532 1.88232L13.4485 5.12427H11.676L10.4807 1.88232H12.2532ZM6.61304 1.88232H8.47461L9.66992 5.12427H6.61304V1.88232ZM6.61304 7.00659H25.4365V20.2666H6.61304V7.00659ZM28.4797 30.1177H3.56982V22.1489H28.4797V30.1177Z" fill="#ADB9CA"/>
<path d="M19.7002 12.4753L13.3003 8.72798C12.6743 8.36128 11.8835 8.81343 11.8835 9.53999V17.0349C11.8835 17.7661 12.6785 18.2111 13.3003 17.8469L19.7002 14.0996C20.3203 13.7365 20.3203 12.8383 19.7002 12.4753ZM13.7659 15.393V11.1818L17.3621 13.2873L13.7659 15.393Z" fill="#ADB9CA"/>
<path d="M10.8127 23.0572L9.42603 24.5999L8.03931 23.0572C7.46484 22.4182 6.39819 22.8242 6.39819 23.6863V28.5804C6.39819 29.1001 6.81958 29.5215 7.33936 29.5215C7.85913 29.5215 8.28052 29.1001 8.28052 28.5804V26.1414L8.72607 26.637C9.1001 27.0533 9.75269 27.0523 10.126 26.637L10.5715 26.1414V28.5804C10.5715 29.1001 10.9929 29.5215 11.5127 29.5215C12.0325 29.5215 12.4539 29.1001 12.4539 28.5804V23.6863C12.4539 22.8267 11.3889 22.416 10.8127 23.0572Z" fill="#ADB9CA"/>
<path d="M24.7102 25.7717H24.5371V23.7166C24.5371 23.1968 24.1157 22.7754 23.596 22.7754C23.0762 22.7754 22.6548 23.1968 22.6548 23.7166V25.7717H21.6668L22.1145 23.9744C22.2402 23.47 21.9331 22.9592 21.4287 22.8335C20.9246 22.708 20.4136 23.0149 20.2881 23.5193L19.5491 26.4854C19.4011 27.0793 19.8513 27.6541 20.4624 27.6541H22.6548V28.55C22.6548 29.0698 23.0762 29.4912 23.596 29.4912C24.1157 29.4912 24.5371 29.0698 24.5371 28.55V27.6541H24.7102C25.23 27.6541 25.6514 27.2327 25.6514 26.7129C25.6514 26.1931 25.23 25.7717 24.7102 25.7717Z" fill="#ADB9CA"/>
<path d="M16.3745 22.7451H14.4866C13.9668 22.7451 13.5454 23.1665 13.5454 23.6863V28.5803C13.5454 29.1001 13.9668 29.5215 14.4866 29.5215C15.0063 29.5215 15.4277 29.1001 15.4277 28.5803V27.6541H16.3745C17.728 27.6541 18.8291 26.553 18.8291 25.1997C18.8291 23.8462 17.728 22.7451 16.3745 22.7451ZM16.3745 25.7717H15.4277V24.6274H16.3745C16.6899 24.6274 16.9468 24.884 16.9468 25.1997C16.9468 25.5151 16.6899 25.7717 16.3745 25.7717Z" fill="#ADB9CA"/>
</g>
<defs>
<clipPath id="clip0">
<rect width="32" height="32" fill="white"/>
</clipPath>
</defs>
</svg>
