<svg width="150" height="150" viewBox="0 0 150 150" fill="none" xmlns="http://www.w3.org/2000/svg">
<path d="M149.142 27.5145L122.481 0.858105C121.932 0.308789 121.187 0 120.41 0H33.3984C28.5521 0 24.6094 3.94277 24.6094 8.78906V14.3742C10.2173 20.0197 0 34.0474 0 50.4173C0 52.0351 1.31191 53.347 2.92969 53.347H38.6985C40.3163 53.347 41.6282 52.0351 41.6282 50.4173V14.6484C41.6282 13.0307 40.3163 11.7188 38.6985 11.7188C35.8749 11.7188 33.1222 12.0255 30.4688 12.6026V8.78906C30.4688 7.17363 31.783 5.85938 33.3984 5.85938H117.48V23.7305C117.48 28.5768 121.423 32.5195 126.27 32.5195H144.141V141.211C144.141 142.826 142.826 144.141 141.211 144.141H33.3984C31.783 144.141 30.4688 142.826 30.4688 141.211V116.113C30.4688 114.495 29.1568 113.184 27.5391 113.184C25.9213 113.184 24.6094 114.495 24.6094 116.113V141.211C24.6094 146.057 28.5521 150 33.3984 150H141.211C146.057 150 150 146.057 150 141.211V29.586C150 28.8091 149.691 28.0638 149.142 27.5145ZM35.7686 17.7079V47.4876H5.98887C7.38955 31.7118 19.9931 19.1086 35.7686 17.7079ZM126.27 26.6602C124.654 26.6602 123.34 25.3459 123.34 23.7305V10.002L140 26.6602H126.27Z" fill="#D2D9EA"/>
<path d="M29.6101 103.397C29.0654 102.852 28.3096 102.539 27.5391 102.539C26.7686 102.539 26.0127 102.852 25.4678 103.397C24.9229 103.942 24.6094 104.698 24.6094 105.469C24.6094 106.239 24.9226 106.995 25.4678 107.54C26.0127 108.085 26.7686 108.398 27.5391 108.398C28.3096 108.398 29.0654 108.085 29.6101 107.54C30.1553 106.995 30.4688 106.239 30.4688 105.469C30.4688 104.698 30.1553 103.942 29.6101 103.397Z" fill="#D2D9EA"/>
<path d="M49.1921 22.2126C47.5744 22.2126 46.2624 23.5246 46.2624 25.1423V57.9812H13.4236C11.8058 57.9812 10.4939 59.2931 10.4939 60.9109C10.4939 82.2493 27.8537 99.6094 49.1921 99.6094C70.5305 99.6094 87.8907 82.2493 87.8907 60.9109C87.8907 39.5725 70.5305 22.2126 49.1921 22.2126ZM52.1218 28.2018C58.9802 28.8106 65.2383 31.5381 70.2378 35.7223L52.1218 53.838V28.2018ZM49.1921 93.75C32.0719 93.75 17.9693 80.5814 16.483 63.8406H49.1921C50.0007 63.8406 50.7326 63.513 51.2628 62.9833C51.2631 62.9831 51.2634 62.9831 51.264 62.9825L74.3819 39.8649C79.1546 45.5681 82.0313 52.9099 82.0313 60.9109C82.0313 79.0184 67.2997 93.75 49.1921 93.75Z" fill="#D2D9EA"/>
<path d="M128.342 92.4624C123.495 92.4624 119.553 96.4052 119.553 101.251C119.553 102.466 119.8 103.624 120.248 104.677L103.369 121.556C102.209 120.991 100.907 120.673 99.5326 120.673C98.1905 120.673 96.9184 120.976 95.7797 121.516L84.5713 110.308C84.9598 109.316 85.1754 108.238 85.1754 107.111C85.1754 102.264 81.2326 98.3215 76.3863 98.3215C71.54 98.3215 67.5972 102.264 67.5972 107.111C67.5972 108.424 67.8888 109.669 68.4073 110.789L57.6568 121.54C56.5116 120.992 55.2302 120.685 53.8784 120.685C49.0321 120.685 45.0893 124.627 45.0893 129.474C45.0893 134.32 49.0321 138.263 53.8784 138.263C58.7247 138.263 62.6675 134.32 62.6675 129.474C62.6675 128.115 62.3575 126.828 61.805 125.679L72.4954 114.988C73.6693 115.571 74.99 115.9 76.3869 115.9C77.9645 115.9 79.4449 115.48 80.7261 114.749L91.6183 125.641C91.0582 126.797 90.7435 128.093 90.7435 129.462C90.7435 134.308 94.6863 138.251 99.5326 138.251C104.379 138.251 108.322 134.308 108.322 129.462C108.322 128.126 108.021 126.86 107.486 125.726L124.207 109.005C125.44 109.665 126.848 110.041 128.342 110.041C133.188 110.041 137.131 106.098 137.131 101.251C137.131 96.4052 133.188 92.4624 128.342 92.4624ZM53.8781 132.404C52.2627 132.404 50.9484 131.089 50.9484 129.474C50.9484 127.859 52.2627 126.544 53.8781 126.544C54.6647 126.544 55.3781 126.858 55.9049 127.364C55.9166 127.376 55.9268 127.389 55.9389 127.401C55.9529 127.415 55.9682 127.427 55.9825 127.441C56.4923 127.968 56.8078 128.684 56.8078 129.474C56.8078 131.089 55.4935 132.404 53.8781 132.404ZM76.3863 110.04C74.7709 110.04 73.4566 108.726 73.4566 107.111C73.4566 105.495 74.7709 104.181 76.3863 104.181C78.0017 104.181 79.316 105.495 79.316 107.111C79.316 108.726 78.0017 110.04 76.3863 110.04ZM99.532 132.391C97.9166 132.391 96.6023 131.077 96.6023 129.462C96.6023 127.846 97.9166 126.532 99.532 126.532C101.147 126.532 102.462 127.846 102.462 129.462C102.462 131.077 101.147 132.391 99.532 132.391ZM128.341 104.181C126.726 104.181 125.411 102.867 125.411 101.251C125.411 99.6357 126.726 98.3215 128.341 98.3215C129.957 98.3215 131.271 99.6357 131.271 101.251C131.271 102.867 129.957 104.181 128.341 104.181Z" fill="#D2D9EA"/>
<path d="M113.698 68.8477H98.2357C96.6179 68.8477 95.306 70.1596 95.306 71.7773C95.306 73.3951 96.6176 74.707 98.2357 74.707H113.698C115.316 74.707 116.628 73.3951 116.628 71.7773C116.628 70.1596 115.316 68.8477 113.698 68.8477Z" fill="#D2D9EA"/>
<path d="M129.108 69.7061C128.563 69.1611 127.808 68.8477 127.037 68.8477C126.267 68.8477 125.511 69.1608 124.966 69.7061C124.421 70.251 124.107 71.0068 124.107 71.7773C124.107 72.5479 124.421 73.3037 124.966 73.8483C125.511 74.3933 126.264 74.707 127.037 74.707C127.808 74.707 128.563 74.3936 129.108 73.8483C129.653 73.3037 129.967 72.5479 129.967 71.7773C129.967 71.0068 129.653 70.251 129.108 69.7061Z" fill="#D2D9EA"/>
<path d="M134.023 40.7227H98.2357C96.6179 40.7227 95.306 42.0346 95.306 43.6523C95.306 45.2701 96.6176 46.582 98.2357 46.582H134.023C135.641 46.582 136.953 45.2701 136.953 43.6523C136.953 42.0346 135.641 40.7227 134.023 40.7227Z" fill="#D2D9EA"/>
<path d="M134.023 54.7852H98.2357C96.6179 54.7852 95.306 56.0971 95.306 57.7148C95.306 59.3326 96.6176 60.6445 98.2357 60.6445H134.023C135.641 60.6445 136.953 59.3326 136.953 57.7148C136.953 56.0971 135.641 54.7852 134.023 54.7852Z" fill="#D2D9EA"/>
</svg>
