<svg width="25" height="25" viewBox="0 0 25 25" fill="none" xmlns="http://www.w3.org/2000/svg">
<g clip-path="url(#clip0)">
<path d="M15.625 1.5625C14.4578 1.5625 13.339 1.99531 12.4734 2.78125C12.1547 3.07187 12.1312 3.56563 12.4219 3.88438C12.7125 4.20469 13.2078 4.22813 13.525 3.9375C14.1015 3.41406 14.8469 3.125 15.625 3.125C17.3484 3.125 18.75 4.52656 18.75 6.25C18.75 7.74375 17.689 9.03125 16.2281 9.31094C15.8047 9.39219 15.5265 9.80156 15.6078 10.225C15.6797 10.5984 16.0062 10.8594 16.375 10.8594C16.4234 10.8594 16.4734 10.8547 16.5234 10.8453C18.7172 10.425 20.3125 8.49219 20.3125 6.25C20.3125 3.66562 18.2094 1.5625 15.625 1.5625Z" fill="#ADB9CA"/>
<path d="M24.9938 16.3734C24.9907 16.3172 24.975 16.2656 24.961 16.2125C24.9485 16.1672 24.9422 16.1203 24.9219 16.0781C24.9032 16.0359 24.8719 16.0016 24.8454 15.9641C24.8125 15.9187 24.7829 15.8719 24.7422 15.8344C24.7344 15.8266 24.7297 15.8156 24.7204 15.8078C22.0266 13.5484 18.6329 12.3844 15.1407 12.5156C14.711 12.5328 14.375 12.8953 14.3907 13.3266C14.4063 13.7578 14.7907 14.125 15.2016 14.0766C18.1875 13.9656 21.0891 14.9297 23.4375 16.7922V18.75H21.0938C20.6625 18.75 20.3125 19.1 20.3125 19.5312C20.3125 19.9625 20.6625 20.3125 21.0938 20.3125H23.4375C24.2985 20.3125 25 19.6109 25 18.75V16.4062C25 16.3937 24.9938 16.3844 24.9938 16.3734Z" fill="#ADB9CA"/>
<path d="M9.375 4.6875C6.79062 4.6875 4.6875 6.79062 4.6875 9.375C4.6875 11.9594 6.79062 14.0625 9.375 14.0625C11.9594 14.0625 14.0625 11.9594 14.0625 9.375C14.0625 6.79062 11.9594 4.6875 9.375 4.6875ZM9.375 12.5C7.65156 12.5 6.25 11.0984 6.25 9.375C6.25 7.65156 7.65156 6.25 9.375 6.25C11.0984 6.25 12.5 7.65156 12.5 9.375C12.5 11.0984 11.0984 12.5 9.375 12.5Z" fill="#ADB9CA"/>
<path d="M18.7437 19.4984C18.7406 19.4421 18.725 19.3906 18.7109 19.3375C18.6984 19.2921 18.6922 19.2453 18.6719 19.2031C18.6531 19.1609 18.6219 19.1265 18.5938 19.0875C18.5609 19.0421 18.5328 18.9968 18.4906 18.9593C18.4812 18.9515 18.4781 18.9406 18.4688 18.9328C13.1984 14.5156 5.54688 14.5156 0.276563 18.9328C0.267188 18.9406 0.264062 18.9515 0.254688 18.9593C0.214062 18.9968 0.184375 19.0421 0.151563 19.089C0.125 19.1281 0.09375 19.1625 0.075 19.2031C0.0546875 19.2453 0.0484375 19.2921 0.0359375 19.3375C0.021875 19.3906 0.00625 19.4421 0.003125 19.4984C0.00625 19.5093 0 19.5187 0 19.5312V21.875C0 22.7359 0.701563 23.4375 1.5625 23.4375H17.1875C18.0484 23.4375 18.75 22.7359 18.75 21.875V19.5312C18.75 19.5187 18.7437 19.5093 18.7437 19.4984ZM17.1875 21.875H1.5625V19.9171C6.14687 16.2843 12.6031 16.2843 17.1875 19.9171V21.875Z" fill="#ADB9CA"/>
</g>
<defs>
<clipPath id="clip0">
<rect width="25" height="25" fill="white"/>
</clipPath>
</defs>
</svg>
