<svg width="25" height="25" viewBox="0 0 25 25" fill="none" xmlns="http://www.w3.org/2000/svg">
<g clip-path="url(#clip0)">
<path d="M10.6771 8.85425H1.82292C0.817708 8.85425 0 8.03654 0 7.03133V5.98966C0 4.98446 0.817708 4.16675 1.82292 4.16675H10.6771C11.1083 4.16675 11.4583 4.51675 11.4583 4.948C11.4583 5.37925 11.1083 5.72925 10.6771 5.72925H1.82292C1.68125 5.72925 1.5625 5.848 1.5625 5.98966V7.03133C1.5625 7.173 1.68125 7.29175 1.82292 7.29175H10.6771C11.1083 7.29175 11.4583 7.64175 11.4583 8.073C11.4583 8.50425 11.1083 8.85425 10.6771 8.85425Z" fill="#ADB9CA"/>
<path d="M20.0519 19.7915H1.82275C1.3915 19.7915 1.0415 19.4415 1.0415 19.0103C1.0415 18.579 1.3915 18.229 1.82275 18.229H20.0519C20.4832 18.229 20.8332 18.579 20.8332 19.0103C20.8332 19.4415 20.4832 19.7915 20.0519 19.7915Z" fill="#ADB9CA"/>
<path d="M14.8438 25C14.6125 25 14.3844 24.8979 14.2302 24.7031L10.9375 20.5312L7.64482 24.7021C7.37607 25.0406 6.88544 25.0989 6.5469 24.8312C6.20836 24.5635 6.15107 24.0719 6.41774 23.7333L10.324 18.7854C10.6209 18.4104 11.2542 18.4104 11.5511 18.7854L15.4573 23.7333C15.724 24.0719 15.6667 24.5635 15.3281 24.8312C15.1844 24.9448 15.0136 25 14.8438 25Z" fill="#ADB9CA"/>
<path d="M22.9166 4.16667C21.7676 4.16667 20.8333 3.23229 20.8333 2.08333C20.8333 0.934375 21.7676 0 22.9166 0C24.0656 0 24.9999 0.934375 24.9999 2.08333C24.9999 3.23229 24.0656 4.16667 22.9166 4.16667ZM22.9166 1.5625C22.6291 1.5625 22.3958 1.79583 22.3958 2.08333C22.3958 2.37083 22.6291 2.60417 22.9166 2.60417C23.2041 2.60417 23.4374 2.37083 23.4374 2.08333C23.4374 1.79583 23.2041 1.5625 22.9166 1.5625Z" fill="#ADB9CA"/>
<path d="M22.9166 12.4999C21.7676 12.4999 20.8333 11.5655 20.8333 10.4166C20.8333 9.26763 21.7676 8.33325 22.9166 8.33325C24.0656 8.33325 24.9999 9.26763 24.9999 10.4166C24.9999 11.5655 24.0656 12.4999 22.9166 12.4999ZM22.9166 9.89575C22.6291 9.89575 22.3958 10.1291 22.3958 10.4166C22.3958 10.7041 22.6291 10.9374 22.9166 10.9374C23.2041 10.9374 23.4374 10.7041 23.4374 10.4166C23.4374 10.1291 23.2041 9.89575 22.9166 9.89575Z" fill="#ADB9CA"/>
<path d="M15.6251 8.33341C14.4761 8.33341 13.5417 7.39903 13.5417 6.25008C13.5417 5.10112 14.4761 4.16675 15.6251 4.16675C16.774 4.16675 17.7084 5.10112 17.7084 6.25008C17.7084 7.39903 16.774 8.33341 15.6251 8.33341ZM15.6251 5.72925C15.3376 5.72925 15.1042 5.96258 15.1042 6.25008C15.1042 6.53758 15.3376 6.77091 15.6251 6.77091C15.9126 6.77091 16.1459 6.53758 16.1459 6.25008C16.1459 5.96258 15.9126 5.72925 15.6251 5.72925Z" fill="#ADB9CA"/>
<path d="M21.7886 10.5489C21.6583 10.5489 21.5271 10.5167 21.4052 10.4479L16.349 7.59478C15.9729 7.38228 15.8406 6.90624 16.0521 6.5302C16.2656 6.1552 16.7417 6.02395 17.1167 6.23333L22.1729 9.08645C22.549 9.29895 22.6813 9.77499 22.4698 10.151C22.3261 10.4062 22.0615 10.5489 21.7886 10.5489Z" fill="#ADB9CA"/>
<path d="M16.752 6.38451C16.4812 6.38451 16.2166 6.24285 16.0729 5.99076C15.8583 5.61576 15.9895 5.13868 16.3645 4.92514L21.401 2.05326C21.776 1.84076 22.2531 1.96993 22.4666 2.34493C22.6812 2.71993 22.5499 3.19701 22.1749 3.41055L17.1385 6.28139C17.0156 6.35118 16.8833 6.38451 16.752 6.38451Z" fill="#ADB9CA"/>
<path d="M2.8645 19.7917C2.43325 19.7917 2.08325 19.4417 2.08325 19.0105V8.073C2.08325 7.64175 2.43325 7.29175 2.8645 7.29175C3.29575 7.29175 3.64575 7.64175 3.64575 8.073V19.0105C3.64575 19.4417 3.29575 19.7917 2.8645 19.7917Z" fill="#ADB9CA"/>
<path d="M19.0105 19.7917C18.5792 19.7917 18.2292 19.4417 18.2292 19.0104V13.2813C18.2292 12.85 18.5792 12.5 19.0105 12.5C19.4417 12.5 19.7917 12.85 19.7917 13.2813V19.0104C19.7917 19.4417 19.4417 19.7917 19.0105 19.7917Z" fill="#ADB9CA"/>
</g>
<defs>
<clipPath id="clip0">
<rect width="25" height="25" fill="white"/>
</clipPath>
</defs>
</svg>
