<svg width="27" height="20" viewBox="0 0 27 20" fill="none" xmlns="http://www.w3.org/2000/svg">
<path d="M6.3202 0.952393L6.6773 0.602422C6.58326 0.506465 6.45455 0.452393 6.3202 0.452393C6.18584 0.452393 6.05714 0.506465 5.9631 0.602422L6.3202 0.952393ZM5.9631 0.602422L0.6429 6.03099L1.3571 6.73093L6.6773 1.30236L5.9631 0.602422ZM5.9631 1.30236L11.2833 6.73093L11.9975 6.03099L6.6773 0.602422L5.9631 1.30236ZM5.8202 0.952393V19.0476H6.8202V0.952393H5.8202ZM16.0739 2.80954H26.7143V1.80954H16.0739V2.80954ZM16.0739 10.0476H23.1675V9.04763H16.0739V10.0476ZM16.0739 17.2857H19.6207V16.2857H16.0739V17.2857Z" fill="#8493A8"/>
</svg>
