<svg width="45" height="45" viewBox="0 0 45 45" fill="none" xmlns="http://www.w3.org/2000/svg">
<path d="M38.0689 5.89813L17.6919 26.2751C17.1426 26.8244 16.2521 26.8244 15.7029 26.2751L6.93114 17.5034L0 24.4345L13.2317 37.6664C14.1508 38.5855 15.3975 39.1019 16.6973 39.1019C17.997 39.1019 19.2437 38.5854 20.1628 37.6664L45 12.8292L38.0689 5.89813Z" fill="black"/>
<g opacity="0.1">
<path opacity="0.1" d="M42.7078 10.5372L16.4873 36.7578C15.7618 37.4831 14.8496 37.9779 13.864 38.1984C14.6869 38.7815 15.6753 39.1019 16.6972 39.1019C17.9969 39.1019 19.2436 38.5854 20.1627 37.6664L44.9999 12.8292L42.7078 10.5372Z" fill="black"/>
</g>
</svg>
