<svg width="20" height="20" viewBox="0 0 20 20" fill="none" xmlns="http://www.w3.org/2000/svg">
<g clip-path="url(#clip0)">
<path d="M16.1523 5.97304C15.4768 2.58376 12.1817 0.3839 8.79239 1.05941C6.31345 1.55349 4.37512 3.49059 3.87952 5.96923C1.47641 6.24617 -0.247375 8.41872 0.0294196 10.822C0.284241 13.0337 2.15756 14.7024 4.38397 14.7009H7.51263C7.85825 14.7009 8.1384 14.4208 8.1384 14.0752C8.1384 13.7295 7.85825 13.4494 7.51263 13.4494H4.38397C2.65592 13.4392 1.26355 12.0302 1.27362 10.3023C1.28384 8.57436 2.69284 7.18184 4.4209 7.19191C4.73981 7.19207 5.00775 6.95205 5.04285 6.63512C5.36054 3.88869 7.84451 1.91985 10.5909 2.23754C12.8999 2.50472 14.7213 4.32601 14.9884 6.63512C15.0409 6.95769 15.3204 7.19405 15.6472 7.19191C17.3753 7.19191 18.7761 8.59267 18.7761 10.3207C18.7761 12.0486 17.3753 13.4494 15.6472 13.4494H12.5186C12.173 13.4494 11.8928 13.7295 11.8928 14.0752C11.8928 14.4208 12.173 14.7009 12.5186 14.7009H15.6474C18.0664 14.6858 20.0152 12.7127 20.0003 10.2936C19.9865 8.09066 18.3389 6.24068 16.1523 5.97304Z" fill="#474949"/>
<path d="M12.2272 12.1666C12.4673 12.4153 12.8634 12.4222 13.112 12.182C13.3606 11.942 13.3674 11.5459 13.1274 11.2973C13.1224 11.292 13.1172 11.2869 13.112 11.2819L10.4582 8.62749C10.2142 8.38274 9.81794 8.38228 9.57319 8.62627C9.57289 8.62673 9.57243 8.62703 9.57212 8.62749L6.91832 11.2819C6.66975 11.5219 6.66288 11.918 6.9029 12.1666C7.14308 12.4152 7.5392 12.422 7.78776 12.182C7.79295 12.177 7.79814 12.1718 7.80317 12.1666L9.38948 10.5797V18.4554C9.38948 18.801 9.66963 19.0811 10.0152 19.0811C10.3607 19.0811 10.6408 18.801 10.6408 18.4554V10.5797L12.2272 12.1666Z" fill="#474949"/>
</g>
<defs>
<clipPath id="clip0">
<rect width="20" height="20" fill="white"/>
</clipPath>
</defs>
</svg>
