<svg width="60" height="50" viewBox="0 0 60 50" fill="none" xmlns="http://www.w3.org/2000/svg">
<path d="M47.5781 39.2383H33.5156C32.5448 39.2383 31.7578 38.4512 31.7578 37.4805V30.332C31.7578 29.2343 32.3698 27.4841 31.6671 26.6408L30.2457 24.9352C29.203 23.684 27.2813 23.684 26.2387 24.9352L24.8172 26.641C24.1146 27.4842 24.7266 29.2344 24.7266 30.332V37.4805C24.7266 38.4512 23.9395 39.2383 22.9688 39.2383H12.4219C5.57238 39.2383 0 33.6658 0 26.8164C0 22.6618 2.11338 18.8389 5.47667 16.5664C6.39794 15.9439 7.04501 14.9664 7.21186 13.8672C8.37342 6.2146 14.9969 0.332031 22.9688 0.332031C27.9427 0.332031 32.6232 2.71858 35.6169 6.67432C35.9502 7.11481 36.4788 7.36328 37.0312 7.36328C41.1951 7.36328 45.0255 9.48492 47.296 12.8604C47.9103 13.7737 48.8752 14.4125 49.9556 14.6227C55.6719 15.7349 60 20.7796 60 26.8164C60 33.6658 54.4276 39.2383 47.5781 39.2383Z" fill="#FF7100"/>
<path d="M47.5781 39.2383H33.5156C32.5448 39.2383 31.7578 38.4512 31.7578 37.4805V30.332C31.7578 29.2343 32.3698 27.4841 31.6671 26.6408L30.2457 24.9352C29.203 23.684 27.2813 23.684 26.2387 24.9352L24.8172 26.641C24.1146 27.4842 24.7266 29.2344 24.7266 30.332V37.4805C24.7266 38.4512 23.9395 39.2383 22.9688 39.2383H12.4219C5.57238 39.2383 0 33.6658 0 26.8164C0 22.6618 2.11338 18.8389 5.47667 16.5664C6.39794 15.9439 7.04501 14.9664 7.21186 13.8672C8.37342 6.2146 14.9969 0.332031 22.9688 0.332031C27.9427 0.332031 32.6232 2.71858 35.6169 6.67432C35.9502 7.11481 36.4788 7.36328 37.0312 7.36328C41.1951 7.36328 45.0255 9.48492 47.296 12.8604C47.9103 13.7737 48.8752 14.4125 49.9556 14.6227C55.6719 15.7349 60 20.7796 60 26.8164C60 33.6658 54.4276 39.2383 47.5781 39.2383Z" fill="url(#paint0_linear)"/>
<path d="M33.5157 49.668H22.9688C21.998 49.668 21.211 48.8809 21.211 47.9102V32.0898H19.4532C18.7712 32.0898 18.1507 31.6953 17.8613 31.0776C17.572 30.4599 17.6661 29.7306 18.1028 29.2067L26.8919 18.6598C27.2259 18.259 27.7207 18.0273 28.2423 18.0273C28.7639 18.0273 29.2586 18.259 29.5926 18.6598L38.3817 29.2067C38.8183 29.7306 38.9124 30.4599 38.6232 31.0776C38.334 31.6953 37.7133 32.0898 37.0313 32.0898H35.2735V47.9102C35.2735 48.8809 34.4865 49.668 33.5157 49.668Z" fill="#FEEDE0"/>
<defs>
<linearGradient id="paint0_linear" x1="30" y1="0.332031" x2="30" y2="39.2383" gradientUnits="userSpaceOnUse">
<stop stop-color="#E8771E"/>
<stop offset="1" stop-color="white" stop-opacity="0"/>
</linearGradient>
</defs>
</svg>
